<?xml version="1.0" standalone="no"?>
<!DOCTYPE svg PUBLIC "-//W3C//DTD SVG 20010904//EN"
 "http://www.w3.org/TR/2001/REC-SVG-20010904/DTD/svg10.dtd">
<svg version="1.0" xmlns="http://www.w3.org/2000/svg"
 width="640.000000pt" height="1280.000000pt" viewBox="0 0 640.000000 1280.000000"
 preserveAspectRatio="xMidYMid meet">
<g transform="translate(0.000000,1280.000000) scale(0.100000,-0.100000)"
fill="#000000" stroke="none">
<path d="M1286 11162 c-4 -7 -18 -123 -36 -307 -6 -60 -15 -150 -21 -200 -9
-93 -76 -653 -84 -714 -2 -19 0 -68 5 -110 5 -42 19 -168 30 -281 62 -606 160
-1447 260 -2220 124 -958 260 -1814 385 -2421 81 -395 114 -700 145 -1359 17
-355 31 -1263 24 -1610 -6 -323 -6 -326 -35 -418 -17 -55 -35 -144 -43 -216
-14 -132 -16 -137 -112 -286 -123 -193 -144 -277 -125 -509 7 -87 18 -155 26
-167 17 -27 143 -92 269 -139 224 -83 576 -153 881 -175 83 -6 186 -16 230
-21 77 -11 470 -7 595 6 30 3 109 10 175 16 246 21 502 63 705 114 200 51 453
144 463 170 17 42 29 187 23 282 -9 166 -15 203 -35 203 -9 0 -31 23 -49 50
-19 27 -61 79 -94 115 l-60 65 16 80 c34 168 22 230 -65 345 l-39 52 0 265 c0
522 24 1477 50 1998 28 547 54 818 110 1130 82 454 169 1019 250 1620 17 124
35 254 40 290 42 279 193 1489 285 2275 25 215 55 469 67 565 32 267 30 311
-40 748 -34 211 -67 436 -72 500 -6 64 -14 140 -18 167 l-7 50 -205 2 c-113 1
-574 7 -1025 12 -451 6 -1175 16 -1610 21 -434 5 -895 12 -1022 14 -128 3
-234 2 -237 -2z m3732 -258 c319 -6 322 -7 326 -28 3 -11 23 -147 46 -301 23
-154 53 -352 66 -439 14 -88 21 -163 17 -167 -8 -7 -2688 -29 -3695 -29 -306
0 -559 3 -561 7 -3 5 8 116 24 248 16 132 40 345 54 474 16 158 28 237 37 243
14 8 3137 2 3686 -8z"/>
</g>
</svg>
